name analog
datacolumns 19
datarows 59
range 0.4345000000000002 0.46350000000000025
endheader
time	ground_force_vx	ground_force_vy	ground_force_vz	ground_force_px	ground_force_py	ground_force_pz	l_ground_force_vx	l_ground_force_vy	l_ground_force_vz	l_ground_force_px	l_ground_force_py	l_ground_force_pz	ground_torque_x	ground_torque_y	ground_torque_z	l_ground_torque_x	l_ground_torque_y	l_ground_torque_z
0.4345000000000002	-0.0	-0.0	-0.0	3.268136501312256	-3.091310501098633	-731.6768798828125	-0.0	-0.0	-0.0	-0.0	-0.0	-0.0	-0.0	-0.0	-0.0	-0.0	-0.0	-0.0
0.43500000000000016	-0.0	-0.0	-0.0	3.6534712314605713	-2.7022368907928467	-730.5841064453125	-0.0	-0.0	-0.0	-0.0	-0.0	-0.0	-0.0	-0.0	-0.0	-0.0	-0.0	-0.0
0.4355000000000002	-0.0	-0.0	-0.0	3.42238450050354	-1.8070261478424072	-732.366943359375	-0.0	-0.0	-0.0	-0.0	-0.0	-0.0	-0.0	-0.0	-0.0	-0.0	-0.0	-0.0
0.43600000000000017	-0.0	-0.0	-0.0	2.872004985809326	-1.932404398918152	-733.9523315429688	-0.0	-0.0	-0.0	-0.0	-0.0	-0.0	-0.0	-0.0	-0.0	-0.0	-0.0	-0.0
0.4365000000000002	-0.0	-0.0	-0.0	2.519399642944336	-2.049999237060547	-733.3997802734375	-0.0	-0.0	-0.0	-0.0	-0.0	-0.0	-0.0	-0.0	-0.0	-0.0	-0.0	-0.0
0.43700000000000017	-0.0	-0.0	-0.0	2.9439468383789062	-1.868415117263794	-735.3206787109375	-0.0	-0.0	-0.0	-0.0	-0.0	-0.0	-0.0	-0.0	-0.0	-0.0	-0.0	-0.0
0.4375000000000002	-0.0	-0.0	-0.0	3.262762546539306	-2.654554605484009	-736.87158203125	-0.0	-0.0	-0.0	-0.0	-0.0	-0.0	-0.0	-0.0	-0.0	-0.0	-0.0	-0.0
0.43800000000000017	-0.0	-0.0	-0.0	3.9540255069732666	-3.2432687282562256	-735.5368041992188	-0.0	-0.0	-0.0	-0.0	-0.0	-0.0	-0.0	-0.0	-0.0	-0.0	-0.0	-0.0
0.4385000000000002	-0.0	-0.0	-0.0	3.919884443283081	-3.806479215621948	-737.1901245117188	-0.0	-0.0	-0.0	-0.0	-0.0	-0.0	-0.0	-0.0	-0.0	-0.0	-0.0	-0.0
0.43900000000000017	-0.0	-0.0	-0.0	4.038431644439697	-4.039753437042236	-736.8576049804688	-0.0	-0.0	-0.0	-0.0	-0.0	-0.0	-0.0	-0.0	-0.0	-0.0	-0.0	-0.0
0.4395000000000002	-0.0	-0.0	-0.0	4.277524471282959	-4.605833530426025	-736.8571166992188	-0.0	-0.0	-0.0	-0.0	-0.0	-0.0	-0.0	-0.0	-0.0	-0.0	-0.0	-0.0
0.44000000000000017	-0.0	-0.0	-0.0	4.8423027992248535	-5.19242000579834	-738.27734375	-0.0	-0.0	-0.0	-0.0	-0.0	-0.0	-0.0	-0.0	-0.0	-0.0	-0.0	-0.0
0.4405000000000002	-0.0	-0.0	-0.0	5.5638628005981445	-6.180936336517334	-738.6072998046875	-0.0	-0.0	-0.0	-0.0	-0.0	-0.0	-0.0	-0.0	-0.0	-0.0	-0.0	-0.0
0.44100000000000017	-0.0	-0.0	-0.0	5.741945743560791	-6.208324432373047	-738.5057373046875	-0.0	-0.0	-0.0	-0.0	-0.0	-0.0	-0.0	-0.0	-0.0	-0.0	-0.0	-0.0
0.4415000000000002	-0.0	-0.0	-0.0	6.512367248535156	-6.179233551025391	-739.9176025390625	-0.0	-0.0	-0.0	-0.0	-0.0	-0.0	-0.0	-0.0	-0.0	-0.0	-0.0	-0.0
0.44200000000000017	-0.0	-0.0	-0.0	7.464349746704102	-5.762959003448486	-738.7315063476562	-0.0	-0.0	-0.0	-0.0	-0.0	-0.0	-0.0	-0.0	-0.0	-0.0	-0.0	-0.0
0.4425000000000002	-0.0	-0.0	-0.0	8.29755687713623	-5.67594051361084	-740.0206298828125	-0.0	-0.0	-0.0	-0.0	-0.0	-0.0	-0.0	-0.0	-0.0	-0.0	-0.0	-0.0
0.44300000000000017	-0.0	-0.0	-0.0	9.57578945159912	-5.259485244750977	-740.5048217773438	-0.0	-0.0	-0.0	-0.0	-0.0	-0.0	-0.0	-0.0	-0.0	-0.0	-0.0	-0.0
0.4435000000000002	-0.0	-0.0	-0.0	10.17120361328125	-4.575160026550293	-738.3799438476562	-0.0	-0.0	-0.0	-0.0	-0.0	-0.0	-0.0	-0.0	-0.0	-0.0	-0.0	-0.0
0.4440000000000002	-0.0	-0.0	-0.0	11.538140296936035	-3.5948026180267334	-738.6179809570312	-0.0	-0.0	-0.0	-0.0	-0.0	-0.0	-0.0	-0.0	-0.0	-0.0	-0.0	-0.0
0.44450000000000023	-0.0	-0.0	-0.0	12.697891235351562	-2.6145966053009038	-738.2636108398438	-0.0	-0.0	-0.0	-0.0	-0.0	-0.0	-0.0	-0.0	-0.0	-0.0	-0.0	-0.0
0.4450000000000002	-0.0	-0.0	-0.0	13.26270866394043	-1.6637516021728516	-738.9706420898438	-0.0	-0.0	-0.0	-0.0	-0.0	-0.0	-0.0	-0.0	-0.0	-0.0	-0.0	-0.0
0.44550000000000023	-0.0	-0.0	-0.0	14.689375877380373	-0.9804344177246094	-738.7374877929688	-0.0	-0.0	-0.0	-0.0	-0.0	-0.0	-0.0	-0.0	-0.0	-0.0	-0.0	-0.0
0.4460000000000002	-0.0	-0.0	-0.0	16.533832550048828	-0.3262065052986145	-742.7337646484375	-0.0	-0.0	-0.0	-0.0	-0.0	-0.0	-0.0	-0.0	-0.0	-0.0	-0.0	-0.0
0.44650000000000023	-0.0	-0.0	-0.0	17.189035415649414	-0.0891304016113281	-744.5005493164062	-0.0	-0.0	-0.0	-0.0	-0.0	-0.0	-0.0	-0.0	-0.0	-0.0	-0.0	-0.0
0.44700000000000023	-0.0	-0.0	-0.0	18.1397705078125	0.4165409505367279	-746.5034790039062	-0.0	-0.0	-0.0	-0.0	-0.0	-0.0	-0.0	-0.0	-0.0	-0.0	-0.0	-0.0
0.44750000000000023	-0.0	-0.0	-0.0	18.7041072845459	0.4166659414768219	-751.3328857421875	-0.0	-0.0	-0.0	-0.0	-0.0	-0.0	-0.0	-0.0	-0.0	-0.0	-0.0	-0.0
0.44800000000000023	-0.0	-0.0	-0.0	18.972980499267575	0.4758014678955078	-756.153076171875	-0.0	-0.0	-0.0	-0.0	-0.0	-0.0	-0.0	-0.0	-0.0	-0.0	-0.0	-0.0
0.44850000000000023	-0.0	-0.0	-0.0	19.534032821655277	0.2976123392581939	-760.7435302734375	-0.0	-0.0	-0.0	-0.0	-0.0	-0.0	-0.0	-0.0	-0.0	-0.0	-0.0	-0.0
0.44900000000000023	-0.0	-0.0	-0.0	19.446155548095703	0.4439172148704529	-764.9739990234375	-0.0	-0.0	-0.0	-0.0	-0.0	-0.0	-0.0	-0.0	-0.0	-0.0	-0.0	-0.0
0.44950000000000023	-0.0	-0.0	-0.0	19.62631225585937	0.6258640289306641	-769.7965087890625	-0.0	-0.0	-0.0	-0.0	-0.0	-0.0	-0.0	-0.0	-0.0	-0.0	-0.0	-0.0
0.45000000000000023	-0.0	-0.0	-0.0	18.76466560363769	0.5347824096679688	-775.1007690429688	-0.0	-0.0	-0.0	-0.0	-0.0	-0.0	-0.0	-0.0	-0.0	-0.0	-0.0	-0.0
0.45050000000000023	-0.0	-0.0	-0.0	18.46417808532715	0.7764564752578735	-777.6002807617188	-0.0	-0.0	-0.0	-0.0	-0.0	-0.0	-0.0	-0.0	-0.0	-0.0	-0.0	-0.0
0.45100000000000023	-0.0	-0.0	-0.0	18.34935188293457	1.721465229988098	-784.0491943359375	-0.0	-0.0	-0.0	-0.0	-0.0	-0.0	-0.0	-0.0	-0.0	-0.0	-0.0	-0.0
0.45150000000000023	-0.0	-0.0	-0.0	17.931312561035156	2.114036321640014	-788.28662109375	-0.0	-0.0	-0.0	-0.0	-0.0	-0.0	-0.0	-0.0	-0.0	-0.0	-0.0	-0.0
0.45200000000000023	-0.0	-0.0	-0.0	17.3990535736084	2.7293295860290527	-794.7646484375	-0.0	-0.0	-0.0	-0.0	-0.0	-0.0	-0.0	-0.0	-0.0	-0.0	-0.0	-0.0
0.45250000000000024	-0.0	-0.0	-0.0	16.919187545776367	2.8829545974731445	-797.8462524414062	-0.0	-0.0	-0.0	-0.0	-0.0	-0.0	-0.0	-0.0	-0.0	-0.0	-0.0	-0.0
0.45300000000000024	-0.0	-0.0	-0.0	16.531400680541992	3.037269592285156	-804.6661987304688	-0.0	-0.0	-0.0	-0.0	-0.0	-0.0	-0.0	-0.0	-0.0	-0.0	-0.0	-0.0
0.45350000000000024	-0.0	-0.0	-0.0	15.426142692565918	2.934033870697021	-810.88671875	-0.0	-0.0	-0.0	-0.0	-0.0	-0.0	-0.0	-0.0	-0.0	-0.0	-0.0	-0.0
0.45400000000000024	-0.0	-0.0	-0.0	14.23884391784668	2.9684653282165527	-817.2432250976562	-0.0	-0.0	-0.0	-0.0	-0.0	-0.0	-0.0	-0.0	-0.0	-0.0	-0.0	-0.0
0.45450000000000024	-0.0	-0.0	-0.0	13.649208068847656	2.984527111053467	-824.5360107421875	-0.0	-0.0	-0.0	-0.0	-0.0	-0.0	-0.0	-0.0	-0.0	-0.0	-0.0	-0.0
0.45500000000000024	-0.0	-0.0	-0.0	13.265477180480955	3.2978248596191406	-829.61962890625	-0.0	-0.0	-0.0	-0.0	-0.0	-0.0	-0.0	-0.0	-0.0	-0.0	-0.0	-0.0
0.45550000000000024	-0.0	-0.0	-0.0	12.993511199951172	3.765761613845825	-838.2725830078125	-0.0	-0.0	-0.0	-0.0	-0.0	-0.0	-0.0	-0.0	-0.0	-0.0	-0.0	-0.0
0.45600000000000024	-0.0	-0.0	-0.0	12.667892456054688	4.2469868659973145	-842.7058715820312	-0.0	-0.0	-0.0	-0.0	-0.0	-0.0	-0.0	-0.0	-0.0	-0.0	-0.0	-0.0
0.45650000000000024	-0.0	-0.0	-0.0	12.605149269104004	5.02754545211792	-847.4688720703125	-0.0	-0.0	-0.0	-0.0	-0.0	-0.0	-0.0	-0.0	-0.0	-0.0	-0.0	-0.0
0.45700000000000024	-0.0	-0.0	-0.0	12.195508003234863	6.1236891746521	-851.0593872070312	-0.0	-0.0	-0.0	-0.0	-0.0	-0.0	-0.0	-0.0	-0.0	-0.0	-0.0	-0.0
0.45750000000000024	-0.0	-0.0	-0.0	12.038095474243164	6.553530216217041	-852.098388671875	-0.0	-0.0	-0.0	-0.0	-0.0	-0.0	-0.0	-0.0	-0.0	-0.0	-0.0	-0.0
0.45800000000000024	-0.0	-0.0	-0.0	11.403904914855955	7.392317295074463	-851.5386352539062	-0.0	-0.0	-0.0	-0.0	-0.0	-0.0	-0.0	-0.0	-0.0	-0.0	-0.0	-0.0
0.45850000000000024	-0.0	-0.0	-0.0	10.774307250976562	7.806114673614502	-853.0321044921875	-0.0	-0.0	-0.0	-0.0	-0.0	-0.0	-0.0	-0.0	-0.0	-0.0	-0.0	-0.0
0.45900000000000024	-0.0	-0.0	-0.0	9.31557273864746	8.225739479064941	-854.7738647460938	-0.0	-0.0	-0.0	-0.0	-0.0	-0.0	-0.0	-0.0	-0.0	-0.0	-0.0	-0.0
0.45950000000000024	-0.0	-0.0	-0.0	7.870024681091309	7.970498561859131	-851.7442016601562	-0.0	-0.0	-0.0	-0.0	-0.0	-0.0	-0.0	-0.0	-0.0	-0.0	-0.0	-0.0
0.46000000000000024	-0.0	-0.0	-0.0	6.276597499847412	7.461489677429199	-850.3563842773438	-0.0	-0.0	-0.0	-0.0	-0.0	-0.0	-0.0	-0.0	-0.0	-0.0	-0.0	-0.0
0.46050000000000024	-0.0	-0.0	-0.0	5.27000617980957	7.683957576751709	-846.3194580078125	-0.0	-0.0	-0.0	-0.0	-0.0	-0.0	-0.0	-0.0	-0.0	-0.0	-0.0	-0.0
0.46100000000000024	-0.0	-0.0	-0.0	4.041629314422607	7.475331306457519	-842.9407348632812	-0.0	-0.0	-0.0	-0.0	-0.0	-0.0	-0.0	-0.0	-0.0	-0.0	-0.0	-0.0
0.46150000000000024	-0.0	-0.0	-0.0	3.675693035125733	7.608127117156982	-838.095947265625	-0.0	-0.0	-0.0	-0.0	-0.0	-0.0	-0.0	-0.0	-0.0	-0.0	-0.0	-0.0
0.46200000000000024	-0.0	-0.0	-0.0	2.7727174758911133	7.372903347015381	-831.1596069335938	-0.0	-0.0	-0.0	-0.0	-0.0	-0.0	-0.0	-0.0	-0.0	-0.0	-0.0	-0.0
0.46250000000000024	-0.0	-0.0	-0.0	1.9799951314926147	6.763979434967041	-827.2749633789062	-0.0	-0.0	-0.0	-0.0	-0.0	-0.0	-0.0	-0.0	-0.0	-0.0	-0.0	-0.0
0.46300000000000024	-0.0	-0.0	-0.0	1.801217794418335	7.39019250869751	-820.0467529296875	-0.0	-0.0	-0.0	-0.0	-0.0	-0.0	-0.0	-0.0	-0.0	-0.0	-0.0	-0.0
0.46350000000000025	-0.0	-0.0	-0.0	1.2567731142044067	6.612328052520752	-812.76416015625	-0.0	-0.0	-0.0	-0.0	-0.0	-0.0	-0.0	-0.0	-0.0	-0.0	-0.0	-0.0
